<mxfile host="65bd71144e" modified="2021-01-07T21:56:21.076Z" agent="5.0 (Macintosh; Intel Mac OS X 10_14_6) AppleWebKit/537.36 (KHTML, like Gecko) Code/1.52.0 Chrome/83.0.4103.122 Electron/9.3.5 Safari/537.36" etag="Y7ocIYa0XmNbSgfGKBTn" version="13.10.0" type="embed">
    <diagram id="fp5n8K5wV-1dMlIHT02_" name="ページ1">
        <mxGraphModel dx="930" dy="859" grid="1" gridSize="10" guides="1" tooltips="1" connect="1" arrows="1" fold="1" page="1" pageScale="1" pageWidth="827" pageHeight="1169" math="0" shadow="0">
            <root>
                <mxCell id="0"/>
                <mxCell id="1" parent="0"/>
                <mxCell id="30" value="" style="shape=table;html=1;whiteSpace=wrap;startSize=0;container=1;collapsible=0;childLayout=tableLayout;" parent="1" vertex="1">
                    <mxGeometry x="129" y="130" width="570" height="909" as="geometry"/>
                </mxCell>
                <mxCell id="31" value="" style="shape=partialRectangle;html=1;whiteSpace=wrap;collapsible=0;dropTarget=0;pointerEvents=0;fillColor=none;top=0;left=0;bottom=0;right=0;points=[[0,0.5],[1,0.5]];portConstraint=eastwest;" parent="30" vertex="1">
                    <mxGeometry width="570" height="50" as="geometry"/>
                </mxCell>
                <mxCell id="32" value="" style="shape=partialRectangle;html=1;whiteSpace=wrap;connectable=0;overflow=hidden;fillColor=none;top=0;left=0;bottom=0;right=0;" parent="31" vertex="1">
                    <mxGeometry width="570" height="50" as="geometry"/>
                </mxCell>
                <mxCell id="33" value="" style="shape=partialRectangle;html=1;whiteSpace=wrap;collapsible=0;dropTarget=0;pointerEvents=0;fillColor=none;top=0;left=0;bottom=0;right=0;points=[[0,0.5],[1,0.5]];portConstraint=eastwest;" parent="30" vertex="1">
                    <mxGeometry y="50" width="570" height="859" as="geometry"/>
                </mxCell>
                <mxCell id="34" value="" style="shape=partialRectangle;html=1;whiteSpace=wrap;connectable=0;overflow=hidden;fillColor=none;top=0;left=0;bottom=0;right=0;" parent="33" vertex="1">
                    <mxGeometry width="570" height="859" as="geometry"/>
                </mxCell>
                <mxCell id="55" value="" style="rounded=0;whiteSpace=wrap;html=1;shadow=0;strokeColor=#F0F0F0;" parent="1" vertex="1">
                    <mxGeometry x="154.5" y="250" width="520" height="470" as="geometry"/>
                </mxCell>
                <mxCell id="17" value="新規登録" style="rounded=0;whiteSpace=wrap;html=1;" parent="1" vertex="1">
                    <mxGeometry x="509" y="140" width="80" height="30" as="geometry"/>
                </mxCell>
                <mxCell id="35" value="ログイン" style="rounded=0;whiteSpace=wrap;html=1;" parent="1" vertex="1">
                    <mxGeometry x="599" y="140" width="80" height="30" as="geometry"/>
                </mxCell>
                <mxCell id="36" value="よんで" style="rounded=0;whiteSpace=wrap;html=1;strokeColor=none;fontSize=15;" parent="1" vertex="1">
                    <mxGeometry x="193" y="140" width="80" height="30" as="geometry"/>
                </mxCell>
                <mxCell id="37" value="ロゴ" style="rounded=0;whiteSpace=wrap;html=1;" parent="1" vertex="1">
                    <mxGeometry x="152" y="140" width="40" height="30" as="geometry"/>
                </mxCell>
                <mxCell id="39" value="新規登録する" style="rounded=0;whiteSpace=wrap;html=1;" parent="1" vertex="1">
                    <mxGeometry x="273" y="640" width="96" height="30" as="geometry"/>
                </mxCell>
                <mxCell id="43" value="test@test.com" style="rounded=0;whiteSpace=wrap;html=1;shadow=0;align=left;strokeColor=none;" parent="1" vertex="1">
                    <mxGeometry x="164" y="330" width="500" height="30" as="geometry"/>
                </mxCell>
                <mxCell id="47" value="フッター" style="rounded=0;whiteSpace=wrap;html=1;shadow=0;strokeColor=#F0F0F0;" parent="1" vertex="1">
                    <mxGeometry x="169" y="930" width="491" height="80" as="geometry"/>
                </mxCell>
                <mxCell id="48" value="メールアドレス" style="rounded=0;whiteSpace=wrap;html=1;strokeColor=none;align=left;" parent="1" vertex="1">
                    <mxGeometry x="164" y="298" width="91" height="30" as="geometry"/>
                </mxCell>
                <mxCell id="51" value="test" style="rounded=0;whiteSpace=wrap;html=1;shadow=0;align=left;strokeColor=none;" parent="1" vertex="1">
                    <mxGeometry x="164" y="402" width="500" height="30" as="geometry"/>
                </mxCell>
                <mxCell id="52" value="よんでID" style="rounded=0;whiteSpace=wrap;html=1;strokeColor=none;align=left;" parent="1" vertex="1">
                    <mxGeometry x="164" y="370" width="91" height="30" as="geometry"/>
                </mxCell>
                <mxCell id="53" value="********" style="rounded=0;whiteSpace=wrap;html=1;shadow=0;align=left;strokeColor=none;" parent="1" vertex="1">
                    <mxGeometry x="160" y="480" width="500" height="30" as="geometry"/>
                </mxCell>
                <mxCell id="54" value="パスワード" style="rounded=0;whiteSpace=wrap;html=1;strokeColor=none;align=left;" parent="1" vertex="1">
                    <mxGeometry x="164" y="440" width="91" height="30" as="geometry"/>
                </mxCell>
                <mxCell id="56" value="記入した内容を確認して、「新規登録する」ボタンをクリックしてください。" style="rounded=0;whiteSpace=wrap;html=1;strokeColor=none;align=left;" parent="1" vertex="1">
                    <mxGeometry x="164" y="260" width="486" height="30" as="geometry"/>
                </mxCell>
                <mxCell id="60" value="プロフィール画像" style="rounded=0;whiteSpace=wrap;html=1;strokeColor=none;align=left;" parent="1" vertex="1">
                    <mxGeometry x="160" y="510" width="106" height="30" as="geometry"/>
                </mxCell>
                <mxCell id="68" value="" style="ellipse;whiteSpace=wrap;html=1;aspect=fixed;" vertex="1" parent="1">
                    <mxGeometry x="164" y="540" width="80" height="80" as="geometry"/>
                </mxCell>
                <mxCell id="69" value="&amp;lt;&amp;lt;修正する" style="rounded=0;whiteSpace=wrap;html=1;strokeColor=none;" vertex="1" parent="1">
                    <mxGeometry x="169" y="640" width="96" height="30" as="geometry"/>
                </mxCell>
            </root>
        </mxGraphModel>
    </diagram>
</mxfile>
